<svg width="132" height="133" viewBox="0 0 132 133" fill="none" xmlns="http://www.w3.org/2000/svg">
<path d="M39.6667 90.5H30.3333C29.0453 90.5 28 89.38 28 88C28 86.62 29.0453 85.5 30.3333 85.5H39.6667C40.9547 85.5 42 86.62 42 88C42 89.38 40.9547 90.5 39.6667 90.5Z" fill="white"/>
<path d="M117.048 89.5H111.096C109.782 89.5 108.715 88.4547 108.715 87.1667C108.715 85.8787 109.782 84.8333 111.096 84.8333H115.072L118.281 68.0707C118.238 59.4933 110.763 52.1667 101.573 52.1667H85.94L78.3642 84.8333H92.0492C93.3635 84.8333 94.4301 85.8787 94.4301 87.1667C94.4301 88.4547 93.3635 89.5 92.0492 89.5H75.3834C74.6597 89.5 73.974 89.178 73.5216 88.6227C73.0693 88.072 72.8979 87.344 73.0597 86.6533L81.7164 49.32C81.964 48.2513 82.9259 47.5 84.0401 47.5H101.573C113.386 47.5 123 56.922 123 68.5L119.386 87.596C119.176 88.702 118.195 89.5 117.048 89.5Z" fill="white"/>
<path d="M102 99.5C95.3856 99.5 90 94.1192 90 87.5C90 80.8808 95.3856 75.5 102 75.5C108.614 75.5 114 80.8808 114 87.5C114 94.1192 108.614 99.5 102 99.5ZM102 80.3C98.0304 80.3 94.8 83.5304 94.8 87.5C94.8 91.4696 98.0304 94.7 102 94.7C105.97 94.7 109.2 91.4696 109.2 87.5C109.2 83.5304 105.97 80.3 102 80.3Z" fill="white"/>
<path d="M49 99.5C42.3856 99.5 37 94.1192 37 87.5C37 80.8808 42.3856 75.5 49 75.5C55.6144 75.5 61 80.8808 61 87.5C61 94.1192 55.6144 99.5 49 99.5ZM49 80.3C45.0304 80.3 41.8 83.5304 41.8 87.5C41.8 91.4696 45.0304 94.7 49 94.7C52.9696 94.7 56.2 91.4696 56.2 87.5C56.2 83.5304 52.9696 80.3 49 80.3Z" fill="white"/>
<path d="M39.6 47.5H20.4C19.0752 47.5 18 46.38 18 45C18 43.62 19.0752 42.5 20.4 42.5H39.6C40.9248 42.5 42 43.62 42 45C42 46.38 40.9248 47.5 39.6 47.5Z" fill="white"/>
<path d="M39.6667 62.5H16.3333C15.0453 62.5 14 61.38 14 60C14 58.62 15.0453 57.5 16.3333 57.5H39.6667C40.9547 57.5 42 58.62 42 60C42 61.38 40.9547 62.5 39.6667 62.5Z" fill="white"/>
<path d="M39.6429 76.5H11.3571C10.056 76.5 9 75.38 9 74C9 72.62 10.056 71.5 11.3571 71.5H39.6429C40.944 71.5 42 72.62 42 74C42 75.38 40.944 76.5 39.6429 76.5Z" fill="white"/>
<path d="M75.6903 90.5H58.9987C57.6824 90.5 56.6142 89.436 56.6142 88.125C56.6142 86.814 57.6824 85.75 58.9987 85.75H73.7875L84.6227 38.25H30.3845C29.0683 38.25 28 37.186 28 35.875C28 34.564 29.0683 33.5 30.3845 33.5H87.6129C88.3378 33.5 89.0245 33.8278 89.4776 34.393C89.9306 34.9535 90.1023 35.6945 89.9402 36.3975L78.0176 88.6475C77.7696 89.7353 76.8015 90.5 75.6903 90.5Z" fill="white"/>
</svg>
