<svg width="132" height="133" viewBox="0 0 132 133" fill="none" xmlns="http://www.w3.org/2000/svg">
<path d="M110.902 84.7407L100.458 74.4089C112.438 49.5415 94.025 20.5 66.0002 20.5C38.0241 20.5 19.5387 49.4916 31.5421 74.4089L21.0981 84.7407C18.1915 87.6161 19.4274 92.5232 23.3686 93.7106L34.9696 97.1964L38.4933 108.673C39.6887 112.556 44.6389 113.804 47.5606 110.919L62.8072 95.8361C64.9031 96.0081 67.0258 96.0138 69.1935 95.8361L84.44 110.919C87.3512 113.799 92.3094 112.564 93.5074 108.673L97.031 97.1964L108.632 93.7106C112.579 92.5214 113.804 87.6112 110.902 84.7407V84.7407ZM43.7082 107.106L40.1827 95.6296C39.6542 93.9046 38.2973 92.5624 36.5537 92.0378L24.9527 88.5521L34.3434 79.2623C39.4436 86.7516 47.185 92.3415 56.236 94.7134L43.7082 107.106ZM38.2808 75.3666C24.5912 53.8007 40.5182 25.8905 66.0002 25.8905C91.688 25.8905 107.286 53.9942 93.7197 75.3665C80.8746 95.632 51.124 95.6293 38.2808 75.3666V75.3666ZM95.4471 92.0377C93.7033 92.5624 92.3465 93.9046 91.8163 95.6295L88.2926 107.106L75.7652 94.7131C84.8162 92.3412 92.5574 86.7512 97.6578 79.2619L107.048 88.5517L95.4471 92.0377Z" fill="#F1F1F1"/>
<path d="M74.191 51.0434L62.2908 60.0646L58.1684 55.5786C57.1478 54.4679 55.4395 54.4126 54.3522 55.4549C53.2651 56.497 53.2107 58.242 54.2313 59.3523L59.9997 65.6296C60.9386 66.6514 62.4775 66.7906 63.5774 65.9568L77.4092 55.4714C78.6065 54.5639 78.8565 52.8367 77.9679 51.6139C77.0793 50.3913 75.3883 50.1358 74.191 51.0434V51.0434Z" fill="#F1F1F1"/>
</svg>
