<svg width="132" height="133" viewBox="0 0 132 133" fill="none" xmlns="http://www.w3.org/2000/svg">
<path d="M105.899 43.9457C105.85 41.4349 105.804 39.0629 105.804 36.7682C105.804 34.9704 104.331 33.5129 102.513 33.5129C88.4396 33.5129 77.7242 29.5121 68.7924 20.9217C67.5147 19.6925 65.4814 19.693 64.2041 20.9217C55.2732 29.5121 44.5596 33.5129 30.4866 33.5129C28.6692 33.5129 27.1958 34.9704 27.1958 36.7682C27.1958 39.0633 27.1501 41.4362 27.1014 43.9475C26.6504 67.3139 26.0326 99.3155 65.4204 112.82C65.7697 112.94 66.1339 113 66.498 113C66.8622 113 67.2269 112.94 67.5757 112.82C106.967 99.315 106.35 67.3126 105.899 43.9457ZM66.4985 106.29C32.7182 94.1518 33.229 67.5609 33.6822 44.0716C33.7094 42.6619 33.7358 41.2955 33.7542 39.9561C46.9351 39.4058 57.4754 35.4548 66.4985 27.6796C75.5224 35.4548 86.0645 39.4062 99.2463 39.9561C99.2647 41.2951 99.291 42.6606 99.3182 44.0694C99.7711 67.5596 100.281 94.1514 66.4985 106.29Z" fill="#F1F1F1"/>
<path d="M78.3653 54.9718L62.4333 70.9884L55.6348 64.1533C54.3456 62.8578 52.2555 62.8578 50.9668 64.1533C49.6777 65.4498 49.6777 67.5507 50.9668 68.8468L60.0994 78.0283C60.7437 78.6761 61.5887 79 62.4333 79C63.2779 79 64.123 78.6761 64.7673 78.0283L83.0328 59.6652C84.3223 58.3692 84.3223 56.2678 83.0332 54.9722C81.7445 53.6762 79.6544 53.6758 78.3653 54.9718Z" fill="#F1F1F1"/>
</svg>
