<svg width="132" height="133" viewBox="0 0 132 133" fill="none" xmlns="http://www.w3.org/2000/svg">
<path d="M105.448 89.3082L85.05 69.1579C84.0117 68.1321 82.6368 68.5567 82.882 68.5084C80.6609 68.9457 78.6254 67.595 77.3478 66.4393L85.7512 58.1381C91.5278 59.6916 97.7885 58.0896 102.074 53.8564C107.106 48.8859 108.426 41.2872 105.359 34.9485C104.645 33.4715 102.663 33.1374 101.493 34.2937L93.7389 41.9532L90.9503 41.3508L90.3422 38.5966L98.0955 30.9376C99.2675 29.78 98.9261 27.8233 97.4324 27.1182C91.0132 24.0885 83.321 25.3927 78.2918 30.3636C74.0066 34.5966 72.3854 40.7819 73.9584 46.4889L61.8016 58.498L45.3264 42.223L47.5914 39.9855C48.6184 38.9711 48.505 37.2934 47.3519 36.4223L37.7261 29.1508C36.7695 28.4283 35.4194 28.5169 34.568 29.3579L28.9055 34.9515C28.0541 35.7925 27.9644 37.1263 28.6959 38.0711L36.0569 47.5801C36.9383 48.7188 38.6356 48.8322 39.664 47.8166L41.9289 45.5793L58.4041 61.8543L46.2473 73.8633C40.4694 72.3094 34.2086 73.9108 29.9239 78.1433C24.8915 83.112 23.571 90.7107 26.638 97.0516C27.3521 98.5284 29.3333 98.8632 30.5043 97.7066L38.2576 90.0475L41.0456 90.6482L41.6557 93.403L33.9017 101.063C32.7302 102.22 33.0705 104.177 34.5646 104.882C40.9833 107.912 48.6753 106.606 53.7055 101.636C57.9909 97.4031 59.6125 91.2185 58.0399 85.5123L66.4414 77.2129C69.3187 80.3234 68.5375 82.6807 68.5375 82.6807C68.3844 83.4423 68.6232 84.2544 69.1952 84.8197L89.5935 104.97C91.6577 107.009 95.0162 107.009 97.08 104.97L105.448 96.7037C107.517 94.6599 107.517 91.352 105.448 89.3082ZM33.7902 36.8384L36.4781 34.1833L42.2537 38.5462L38.2069 42.5438L33.7902 36.8384ZM53.0555 85.6961C54.7167 90.051 53.6384 94.9907 50.3082 98.2804C47.591 100.964 43.7897 102.152 40.115 101.637L45.9821 95.8415C46.5609 95.2699 46.8051 94.4463 46.6303 93.6564L45.4107 88.1468C45.2102 87.2406 44.4933 86.5328 43.5758 86.3352L37.9995 85.1337C37.2006 84.9611 36.3673 85.2028 35.7888 85.7743L29.9226 91.5691C29.4015 87.9391 30.6038 84.1827 33.3212 81.4998C36.6511 78.2102 41.6521 77.1455 46.0612 78.7869C46.944 79.1155 47.9402 78.9033 48.6072 78.2443L78.3936 48.8199C79.0608 48.1608 79.2758 47.1771 78.943 46.3049C77.2813 41.9491 78.3592 37.0089 81.6898 33.7191C84.4057 31.0347 88.2084 29.8475 91.8826 30.3623L86.0164 36.1575C85.4381 36.7287 85.1935 37.5517 85.3679 38.3411L86.5841 43.8496C86.7842 44.756 87.5007 45.4642 88.4181 45.6623L93.9955 46.8672C94.795 47.0396 95.6286 46.7985 96.2074 46.2268L102.075 40.431C102.595 44.06 101.393 47.8164 98.6762 50.5003C95.3459 53.79 90.3457 54.8555 85.937 53.2143C85.054 52.8857 84.0582 53.098 83.3911 53.7569C83.1107 54.0339 54.332 82.4629 53.6047 83.1811C52.9377 83.8402 52.7227 84.8239 53.0555 85.6961ZM73.9509 69.7948C74.9993 70.7611 76.4474 71.8551 78.1987 72.5697L72.6485 78.0525C71.9251 76.3226 70.8179 74.8911 69.84 73.8557L73.9509 69.7948ZM102.051 93.3476L93.6829 101.614C93.4921 101.802 93.1819 101.802 92.9912 101.614L74.2914 83.1416L83.3512 74.1919L102.051 92.6642C102.242 92.8534 102.242 93.1582 102.051 93.3476Z" fill="#F1F1F1"/>
</svg>
